<svg width="16" height="23" viewBox="0 0 16 23" fill="none" xmlns="http://www.w3.org/2000/svg">
<path d="M13.3344 22.2998C5.88425 21.6669 0.368826 15.1151 1.00083 7.67607C1.0286 7.34921 1.27884 7.08842 1.59894 7.04265L4.67925 6.60222C4.84166 6.57899 5.00708 6.61358 5.14658 6.69993C5.28608 6.78629 5.3908 6.91892 5.44243 7.07466L6.56035 10.4465C6.6081 10.5905 6.60773 10.7462 6.5593 10.89C6.51087 11.0338 6.417 11.158 6.29184 11.2438L4.40865 12.5349C5.28264 14.9004 6.98151 16.887 9.12007 18.1212L10.7104 16.4827C10.8161 16.3738 10.9543 16.3023 11.1042 16.2788C11.2541 16.2553 11.4076 16.2812 11.5415 16.3526L14.6765 18.0233C14.8213 18.1005 14.9343 18.2261 14.9959 18.3782C15.0575 18.5302 15.0637 18.6991 15.0134 18.8553L14.0596 21.8171C14.0111 21.9677 13.913 22.0974 13.7813 22.1851C13.6496 22.2728 13.492 22.3132 13.3344 22.2998ZM7.19599 5.56329C8.09033 5.8766 8.74543 6.65335 8.90337 7.58773C8.95611 7.89968 8.70435 8.17943 8.38863 8.15931L8.05242 8.13793C7.83234 8.12395 7.65073 7.9643 7.60386 7.74885C7.55859 7.5413 7.46333 7.34793 7.32637 7.18554C7.18941 7.02315 7.01489 6.89664 6.81795 6.817C6.61346 6.73448 6.48677 6.52852 6.51011 6.30924L6.54577 5.97423C6.5792 5.65964 6.89741 5.45868 7.19599 5.56329ZM7.65906 0.316686C11.4098 0.966526 14.1451 4.21279 14.1529 8.01635C14.1535 8.29954 13.9138 8.52402 13.6312 8.50605L13.3049 8.48529C13.0483 8.46895 12.8474 8.25714 12.8461 8C12.8297 4.8432 10.561 2.15576 7.45473 1.60751C7.2015 1.5628 7.02658 1.32913 7.0538 1.07341L7.08838 0.748309C7.11834 0.466731 7.38003 0.268337 7.65906 0.316686ZM7.40796 2.92175C9.74552 3.41709 11.4487 5.43291 11.5428 7.82439C11.5542 8.11515 11.3117 8.35215 11.0214 8.33361L10.6939 8.31269C10.4462 8.29688 10.2472 8.0986 10.2358 7.85066C10.1544 6.07862 8.89437 4.58472 7.16157 4.20559C6.91911 4.15255 6.75728 3.92291 6.78345 3.67611L6.81808 3.3498C6.84878 3.06046 7.1233 2.86142 7.40796 2.92175Z" fill="#383937"/>
</svg>
