<svg width="18" height="13" viewBox="0 0 18 13" fill="none" xmlns="http://www.w3.org/2000/svg">
<path d="M10.4236 0.870735L11.0767 0.209869C11.3532 -0.0699565 11.8004 -0.0699565 12.0739 0.209869L17.7926 5.99393C18.0691 6.27376 18.0691 6.72624 17.7926 7.00309L12.0739 12.7901C11.7974 13.07 11.3503 13.07 11.0767 12.7901L10.4236 12.1293C10.1442 11.8465 10.1501 11.385 10.4354 11.1082L13.9802 7.69075H0.706009C0.314762 7.69075 0 7.37222 0 6.9763V6.0237C0 5.62778 0.314762 5.30925 0.706009 5.30925H13.9802L10.4354 1.8918C10.1471 1.61495 10.1412 1.15354 10.4236 0.870735Z" fill="black"/>
</svg>
